mtllib unnamed.mtl
# vertices
v -192 320 384
v -192 320 896
v -192 576 896
v -192 576 384
v -128 576 896
v -128 320 896
v -128 320 384
v -128 576 384
v -128 320 384
v -128 320 448
v -128 576 448
v -128 576 384
v 512 576 448
v 512 320 448
v 512 320 384
v 512 576 384
v -128 512 448
v -128 512 832
v -128 576 832
v -128 576 448
v 512 576 832
v 512 512 832
v 512 512 448
v 512 576 448
v -128 320 448
v -128 320 832
v -128 384 832
v -128 384 448
v 512 384 832
v 512 320 832
v 512 320 448
v 512 384 448
v -128 320 832
v -128 320 896
v -128 576 896
v -128 576 832
v 512 576 896
v 512 320 896
v 512 320 832
v 512 576 832
v 512 320 384
v 512 320 640
v 512 576 640
v 512 576 384
v 576 576 640
v 576 320 640
v 576 320 384
v 576 576 384
v 512 320 704
v 512 320 896
v 512 576 896
v 512 576 704
v 576 576 896
v 576 320 896
v 576 320 704
v 576 576 704
v 512 576 640
v 512 576 704
v 512 640 704
v 512 640 640
v 576 640 704
v 576 576 704
v 576 576 640
v 576 640 640
v 512 320 640
v 512 320 704
v 512 384 704
v 512 384 640
v 576 384 704
v 576 320 704
v 576 320 640
v 576 384 640
v 576 320 640
v 576 320 704
v 576 384 704
v 576 384 640
v 1088 512 640
v 1088 512 704
v 1088 320 704
v 1088 320 640
v 576 448 704
v 576 448 896
v 576 704 896
v 576 704 704
v 1088 704 896
v 1088 448 896
v 1088 448 704
v 1088 704 704
v 576 448 448
v 576 448 640
v 576 704 640
v 576 704 448
v 1088 704 640
v 1088 448 640
v 1088 448 448
v 1088 704 448
v 521.8518262431207 569.5294445309555 704
v 472.1585695834347 754.9872031784633 704
v 472.1585695834347 754.9872031784633 640
v 521.8518262431195 569.5294445309582 640
v 1061.6606832990624 780.4284673925135 640
v 1061.6606832990624 780.4284673925135 704
v 1078.2251021856246 718.6092145100085 704
v 1078.2251021856246 718.6092145100092 640
v 576 320 448
v 576 320 640
v 576 448 640
v 576 448 448
v 1024 448 640
v 1024 320 640
v 1024 320 448
v 1024 448 448
v 576 320 704
v 576 320 896
v 576 448 896
v 576 448 704
v 1024 448 896
v 1024 320 896
v 1024 320 704
v 1024 448 704
v 640 704 704
v 640 704 768
v 640 768 768
v 640 768 704
v 1088 768 768
v 1088 704 768
v 1088 704 704
v 1088 768 704
v 576 704 576
v 576 704 640
v 576 768 640
v 576 768 576
v 1088 768 640
v 1088 704 640
v 1088 704 576
v 1088 768 576
v 1024 704 640
v 1024 704 704
v 1024 768 704
v 1024 768 640
v 1088 768 704
v 1088 704 704
v 1088 704 640
v 1088 768 640
v 1152 448 -64
v 1152 448 -0
v 1152 832 -0
v 1152 832 -64
v 2240 832 -0
v 2240 448 -0
v 2240 448 -64
v 2240 832 -64
v 1152 448 832
v 1152 448 896
v 1152 832 896
v 1152 832 832
v 2240 832 896
v 2240 448 896
v 2240 448 832
v 2240 832 832
v 1152 768 -0
v 1152 768 832
v 1152 832 832
v 1152 832 -0
v 2240 832 832
v 2240 768 832
v 2240 768 -0
v 2240 832 -0
v 1152 448 -0
v 1152 448 832
v 1152 512 832
v 1152 512 -0
v 2240 512 832
v 2240 448 832
v 2240 448 -0
v 2240 512 -0
v 1088 448 -64
v 1088 448 640
v 1088 832 640
v 1088 832 -64
v 1152 832 640
v 1152 448 640
v 1152 448 -64
v 1152 832 -64
v 1088 448 704
v 1088 448 896
v 1088 832 896
v 1088 832 704
v 1152 832 896
v 1152 448 896
v 1152 448 704
v 1152 832 704
v 1088 704 640
v 1088 704 704
v 1088 832 704
v 1088 832 640
v 1152 832 704
v 1152 704 704
v 1152 704 640
v 1152 832 640
v 1088 448 640
v 1088 448 704
v 1088 512 704
v 1088 512 640
v 1152 512 704
v 1152 448 704
v 1152 448 640
v 1152 512 640
v 2240 448 -64
v 2240 448 384
v 2240 832 384
v 2240 832 -64
v 2304 832 384
v 2304 448 384
v 2304 448 -64
v 2304 832 -64
v 2240 448 512
v 2240 448 896
v 2240 832 896
v 2240 832 512
v 2304 832 896
v 2304 448 896
v 2304 448 512
v 2304 832 512
v 2240 768 384
v 2240 768 512
v 2240 832 512
v 2240 832 384
v 2304 832 512
v 2304 768 512
v 2304 768 384
v 2304 832 384
v 2240 448 384
v 2240 448 512
v 2240 512 512
v 2240 512 384
v 2304 512 512
v 2304 448 512
v 2304 448 384
v 2304 512 384
v 4416 448 -704
v 4416 448 896
v 4416 832 896
v 4416 832 -704
v 4480 832 896
v 4480 448 896
v 4480 448 -704
v 4480 832 -704
v 2368 448 832
v 2368 448 896
v 2368 832 896
v 2368 832 832
v 4416 832 896
v 4416 448 896
v 4416 448 832
v 4416 832 832
v 2368 768 -640
v 2368 768 832
v 2368 832 832
v 2368 832 -640
v 4416 832 832
v 4416 768 832
v 4416 768 -640
v 4416 832 -640
v 2368 448 -640
v 2368 448 832
v 2368 512 832
v 2368 512 -640
v 4416 512 832
v 4416 448 832
v 4416 448 -640
v 4416 512 -640
v 2304 448 -704
v 2304 448 384
v 2304 832 384
v 2304 832 -704
v 2368 832 384
v 2368 448 384
v 2368 448 -704
v 2368 832 -704
v 2304 448 512
v 2304 448 896
v 2304 832 896
v 2304 832 512
v 2368 832 896
v 2368 448 896
v 2368 448 512
v 2368 832 512
v 2304 768 384
v 2304 768 512
v 2304 832 512
v 2304 832 384
v 2368 832 512
v 2368 768 512
v 2368 768 384
v 2368 832 384
v 2304 448 384
v 2304 448 512
v 2304 512 512
v 2304 512 384
v 2368 512 512
v 2368 448 512
v 2368 448 384
v 2368 512 384
v 3712 448 -704
v 3712 448 -640
v 3712 832 -640
v 3712 832 -704
v 4416 832 -640
v 4416 448 -640
v 4416 448 -704
v 4416 832 -704
v 2368 448 -704
v 2368 448 -640
v 2368 832 -640
v 2368 832 -704
v 3584 832 -640
v 3584 448 -640
v 3584 448 -704
v 3584 832 -704
v 3584 768 -704
v 3584 768 -640
v 3584 832 -640
v 3584 832 -704
v 3712 832 -640
v 3712 768 -640
v 3712 768 -704
v 3712 832 -704
v 3584 448 -704
v 3584 448 -640
v 3584 512 -640
v 3584 512 -704
v 3712 512 -640
v 3712 448 -640
v 3712 448 -704
v 3712 512 -704

# texture coordinates
vt -4.3636365 3.6363637
vt -10.181818 3.6363637
vt -10.181818 6.5454545
vt -4.3636365 6.5454545
vt -1.4545455 6.5454545
vt -2.1818182 6.5454545
vt -2.1818182 3.6363637
vt -1.4545455 3.6363637
vt -1.4545455 -10.181818
vt -2.1818182 -10.181818
vt -2.1818182 -4.3636365
vt -1.4545455 -4.3636365
vt -5.090909 3.6363637
vt -5.090909 6.5454545
vt 5.818182 6.5454545
vt 5.818182 3.6363637
vt 5.818182 -5.090909
vt -1.4545455 -5.090909
vt 5.818182 -4.3636365
vt -5.090909 5.818182
vt -9.454545 5.818182
vt -9.454545 6.5454545
vt -1.4545455 5.818182
vt 5.818182 5.818182
vt 5.818182 -9.454545
vt -1.4545455 -9.454545
vt -9.454545 3.6363637
vt -9.454545 4.3636365
vt -5.090909 4.3636365
vt 5.818182 4.3636365
vt -1.4545455 4.3636365
vt 5.818182 -10.181818
vt -7.2727275 3.6363637
vt -7.2727275 6.5454545
vt 6.5454545 6.5454545
vt 6.5454545 3.6363637
vt 6.5454545 -7.2727275
vt 5.818182 -7.2727275
vt 6.5454545 -4.3636365
vt -8 3.6363637
vt -8 6.5454545
vt 6.5454545 -10.181818
vt 5.818182 -8
vt 6.5454545 -8
vt -8 7.2727275
vt -7.2727275 7.2727275
vt 6.5454545 7.2727275
vt 5.818182 7.2727275
vt -8 4.3636365
vt -7.2727275 4.3636365
vt 6.5454545 4.3636365
vt 12.363636 -7.2727275
vt 12.363636 -8
vt 12.363636 5.818182
vt 12.363636 3.6363637
vt -7.2727275 5.818182
vt -8 5.818182
vt -8 5.090909
vt -10.181818 5.090909
vt -10.181818 8
vt -8 8
vt 12.363636 8
vt 6.5454545 8
vt 6.5454545 5.090909
vt 12.363636 5.090909
vt 12.363636 -10.181818
vt -5.090909 5.090909
vt -7.2727275 5.090909
vt -7.2727275 8
vt -5.090909 8
vt 6.5454545 -5.090909
vt 12.363636 -5.090909
vt -8 6.4719253
vt -8 8.5794
vt -7.2727275 8.5794
vt -7.2727275 6.4719253
vt 12.064325 -7.2727275
vt 5.3654385 -7.2727275
vt 5.3654385 -8
vt 12.064325 -8
vt 12.064325 8.8685055
vt 5.3654385 8.5794
vt 5.9301343 6.4719253
vt 12.252558 8.166014
vt 12.252558 -8
vt 5.9301343 -8
vt 5.9301343 -7.2727275
vt 12.252558 -7.2727275
vt -7.2727275 8.166014
vt -7.2727275 8.8685055
vt -8 8.8685055
vt -8 8.166014
vt 11.636364 5.090909
vt 11.636364 3.6363637
vt 11.636364 -7.2727275
vt 11.636364 -5.090909
vt 11.636364 -10.181818
vt 11.636364 -8
vt -8.727273 8
vt -8.727273 8.727273
vt -8 8.727273
vt 12.363636 8.727273
vt 7.2727275 8.727273
vt 7.2727275 8
vt 12.363636 -8.727273
vt 7.2727275 -8.727273
vt 7.2727275 -8
vt -6.5454545 8
vt -7.2727275 8.727273
vt -6.5454545 8.727273
vt 6.5454545 8.727273
vt 6.5454545 -6.5454545
vt 12.363636 -6.5454545
vt 11.636364 8.727273
vt 11.636364 8
vt 0.72727275 5.090909
vt 0 5.090909
vt 0 9.454545
vt 0.72727275 9.454545
vt 25.454546 9.454545
vt 13.090909 9.454545
vt 13.090909 5.090909
vt 25.454546 5.090909
vt 25.454546 -0
vt 13.090909 -0
vt 13.090909 0.72727275
vt 25.454546 0.72727275
vt -9.454545 5.090909
vt -10.181818 9.454545
vt -9.454545 9.454545
vt 25.454546 -10.181818
vt 13.090909 -10.181818
vt 13.090909 -9.454545
vt 25.454546 -9.454545
vt 0 8.727273
vt -9.454545 8.727273
vt 13.090909 8.727273
vt 25.454546 8.727273
vt 0 5.818182
vt 25.454546 5.818182
vt 13.090909 5.818182
vt -7.2727275 9.454545
vt 12.363636 9.454545
vt 13.090909 -7.2727275
vt 12.363636 0.72727275
vt -8 9.454545
vt 13.090909 -8
vt 13.090909 8
vt -4.3636365 5.090909
vt -4.3636365 9.454545
vt 26.181818 9.454545
vt 26.181818 5.090909
vt 26.181818 -4.3636365
vt 25.454546 -4.3636365
vt 26.181818 0.72727275
vt -5.818182 5.090909
vt -5.818182 9.454545
vt 26.181818 -10.181818
vt 25.454546 -5.818182
vt 26.181818 -5.818182
vt -4.3636365 8.727273
vt -5.818182 8.727273
vt 26.181818 8.727273
vt -5.818182 5.818182
vt -4.3636365 5.818182
vt 26.181818 5.818182
vt 8 5.090909
vt 8 9.454545
vt 50.909092 9.454545
vt 50.18182 9.454545
vt 50.18182 5.090909
vt 50.909092 5.090909
vt 50.909092 -10.181818
vt 50.18182 -10.181818
vt 50.18182 8
vt 50.909092 8
vt 26.90909 9.454545
vt 26.90909 5.090909
vt 26.90909 -10.181818
vt 26.90909 -9.454545
vt 50.18182 -9.454545
vt 7.2727275 9.454545
vt 26.90909 8.727273
vt 50.18182 8.727273
vt 26.90909 7.2727275
vt 50.18182 7.2727275
vt 7.2727275 5.090909
vt 7.2727275 5.818182
vt 50.18182 5.818182
vt 26.90909 5.818182
vt 26.90909 -4.3636365
vt 26.181818 8
vt 26.90909 8
vt 26.90909 -5.818182
vt 42.18182 9.454545
vt 42.18182 5.090909
vt 42.18182 7.2727275
vt 42.18182 8
vt 40.727272 9.454545
vt 40.727272 5.090909
vt 40.727272 7.2727275
vt 40.727272 8
vt 8 8.727273
vt 40.727272 8.727273
vt 42.18182 8.727273
vt 8 5.818182
vt 42.18182 5.818182
vt 40.727272 5.818182

# normals
vn -1 0 -0
vn 0 0 1
vn 0 -1 -0
vn -0 1 -0
vn 0 0 -1
vn 1 0 -0
vn -0.24253562503633297 0.9701425001453319 -0
vn -0.9659258262890686 -0.25881904510251935 -0
vn -0.04311707104249472 0.9990700266671584 -0
vn 0.2588190451025191 -0.9659258262890688 -0
vn 0.9659258262890695 0.2588190451025163 -0

o entity0_brush0
usemtl rock
f  1/1/1  2/2/1  3/3/1  4/4/1
usemtl rock
f  5/5/2  3/6/2  2/7/2  6/8/2
usemtl rock
f  6/9/3  2/10/3  1/11/3  7/12/3
usemtl rock
f  8/12/4  4/11/4  3/10/4  5/9/4
usemtl rock
f  7/8/5  1/7/5  4/6/5  8/5/5
usemtl rock
f  8/4/6  5/3/6  6/2/6  7/1/6

o entity0_brush1
usemtl ground
f  9/1/1  10/13/1  11/14/1  12/4/1
usemtl ground
f  13/15/2  11/5/2  10/8/2  14/16/2
usemtl ground
f  14/17/3  10/18/3  9/12/3  15/19/3
usemtl ground
f  16/19/4  12/12/4  11/18/4  13/17/4
usemtl ground
f  15/16/5  9/8/5  12/5/5  16/15/5
usemtl ground
f  16/4/6  13/14/6  14/13/6  15/1/6

o entity0_brush2
usemtl side
f  17/20/1  18/21/1  19/22/1  20/14/1
usemtl side
f  21/15/2  19/5/2  18/23/2  22/24/2
usemtl side
f  22/25/3  18/26/3  17/18/3  23/17/3
usemtl side
f  24/17/4  20/18/4  19/26/4  21/25/4
usemtl side
f  23/24/5  17/23/5  20/5/5  24/15/5
usemtl side
f  24/14/6  21/22/6  22/21/6  23/20/6

o entity0_brush3
usemtl ground_1
f  25/13/1  26/27/1  27/28/1  28/29/1
usemtl ground_1
f  29/30/2  27/31/2  26/8/2  30/16/2
usemtl ground_1
f  30/25/3  26/26/3  25/18/3  31/17/3
usemtl ground_1
f  32/17/4  28/18/4  27/26/4  29/25/4
usemtl ground_1
f  31/16/5  25/8/5  28/31/5  32/30/5
usemtl ground_1
f  32/29/6  29/28/6  30/27/6  31/13/6

o entity0_brush4
usemtl ground
f  33/27/1  34/2/1  35/3/1  36/22/1
usemtl ground
f  37/15/2  35/5/2  34/8/2  38/16/2
usemtl ground
f  38/32/3  34/9/3  33/26/3  39/25/3
usemtl ground
f  40/25/4  36/26/4  35/9/4  37/32/4
usemtl ground
f  39/16/5  33/8/5  36/5/5  40/15/5
usemtl ground
f  40/22/6  37/3/6  38/2/6  39/27/6

o entity0_brush5
usemtl ground
f  41/1/1  42/33/1  43/34/1  44/4/1
usemtl ground
f  45/35/2  43/15/2  42/16/2  46/36/2
usemtl ground
f  46/37/3  42/38/3  41/19/3  47/39/3
usemtl ground
f  48/39/4  44/19/4  43/38/4  45/37/4
usemtl ground
f  47/36/5  41/16/5  44/15/5  48/35/5
usemtl ground
f  48/4/6  45/34/6  46/33/6  47/1/6

o entity0_brush6
usemtl ground
f  49/40/1  50/2/1  51/3/1  52/41/1
usemtl ground
f  53/35/2  51/15/2  50/16/2  54/36/2
usemtl ground
f  54/42/3  50/32/3  49/43/3  55/44/3
usemtl ground
f  56/44/4  52/43/4  51/32/4  53/42/4
usemtl ground
f  55/36/5  49/16/5  52/15/5  56/35/5
usemtl ground
f  56/41/6  53/3/6  54/2/6  55/40/6

o entity0_brush7
usemtl ground
f  57/34/1  58/41/1  59/45/1  60/46/1
usemtl ground
f  61/47/2  59/48/2  58/15/2  62/35/2
usemtl ground
f  62/44/3  58/43/3  57/38/3  63/37/3
usemtl ground
f  64/37/4  60/38/4  59/43/4  61/44/4
usemtl ground
f  63/35/5  57/15/5  60/48/5  64/47/5
usemtl ground
f  64/46/6  61/45/6  62/41/6  63/34/6

o entity0_brush8
usemtl ground
f  65/33/1  66/40/1  67/49/1  68/50/1
usemtl ground
f  69/51/2  67/30/2  66/16/2  70/36/2
usemtl ground
f  70/44/3  66/43/3  65/38/3  71/37/3
usemtl ground
f  72/37/4  68/38/4  67/43/4  69/44/4
usemtl ground
f  71/36/5  65/16/5  68/30/5  72/51/5
usemtl ground
f  72/50/6  69/49/6  70/40/6  71/33/6

o entity0_brush9
usemtl ground_1
f  73/33/1  74/40/1  75/49/1  76/50/1
usemtl ground_1
f  77/52/7  76/37/7  75/44/7  78/53/7
usemtl ground_1
f  78/54/2  75/51/2  74/36/2  79/55/2
usemtl ground_1
f  79/53/3  74/44/3  73/37/3  80/52/3
usemtl ground_1
f  80/55/5  73/36/5  76/51/5  77/54/5
usemtl ground_1
f  79/40/6  80/33/6  77/56/6  78/57/6

o entity0_brush10
usemtl ground
f  81/58/1  82/59/1  83/60/1  84/61/1
usemtl ground
f  85/62/2  83/63/2  82/64/2  86/65/2
usemtl ground
f  86/66/3  82/42/3  81/44/3  87/53/3
usemtl ground
f  88/53/4  84/44/4  83/42/4  85/66/4
usemtl ground
f  87/65/5  81/64/5  84/63/5  88/62/5
usemtl ground
f  88/61/6  85/60/6  86/59/6  87/58/6

o entity0_brush11
usemtl ground
f  89/67/1  90/68/1  91/69/1  92/70/1
usemtl ground
f  93/62/2  91/63/2  90/64/2  94/65/2
usemtl ground
f  94/52/3  90/37/3  89/71/3  95/72/3
usemtl ground
f  96/72/4  92/71/4  91/37/4  93/52/4
usemtl ground
f  95/65/5  89/64/5  92/63/5  96/62/5
usemtl ground
f  96/70/6  93/69/6  94/68/6  95/67/6

o entity0_brush12
usemtl side
f  97/73/8  98/74/8  99/75/8  100/76/8
usemtl side
f  101/77/9  99/78/9  98/79/9  102/80/9
usemtl side
f  102/81/2  98/82/2  97/83/2  103/84/2
usemtl side
f  104/84/5  100/83/5  99/82/5  101/81/5
usemtl side
f  103/85/10  97/86/10  100/87/10  104/88/10
usemtl side
f  104/89/11  101/90/11  102/91/11  103/92/11

o entity0_brush13
usemtl rock
f  105/13/1  106/33/1  107/68/1  108/67/1
usemtl rock
f  109/93/2  107/64/2  106/36/2  110/94/2
usemtl rock
f  110/95/3  106/37/3  105/71/3  111/96/3
usemtl rock
f  112/96/4  108/71/4  107/37/4  109/95/4
usemtl rock
f  111/94/5  105/36/5  108/64/5  112/93/5
usemtl rock
f  112/67/6  109/68/6  110/33/6  111/13/6

o entity0_brush14
usemtl rock
f  113/40/1  114/2/1  115/59/1  116/58/1
usemtl rock
f  117/93/2  115/64/2  114/36/2  118/94/2
usemtl rock
f  118/97/3  114/42/3  113/44/3  119/98/3
usemtl rock
f  120/98/4  116/44/4  115/42/4  117/97/4
usemtl rock
f  119/94/5  113/36/5  116/64/5  120/93/5
usemtl rock
f  120/58/6  117/59/6  118/2/6  119/40/6

o entity0_brush15
usemtl rock
f  121/61/1  122/99/1  123/100/1  124/101/1
usemtl rock
f  125/102/2  123/103/2  122/104/2  126/62/2
usemtl rock
f  126/105/3  122/106/3  121/107/3  127/53/3
usemtl rock
f  128/53/4  124/107/4  123/106/4  125/105/4
usemtl rock
f  127/62/5  121/104/5  124/103/5  128/102/5
usemtl rock
f  128/101/6  125/100/6  126/99/6  127/61/6

o entity0_brush16
usemtl rock
f  129/108/1  130/69/1  131/109/1  132/110/1
usemtl rock
f  133/102/2  131/111/2  130/63/2  134/62/2
usemtl rock
f  134/52/3  130/37/3  129/112/3  135/113/3
usemtl rock
f  136/113/4  132/112/4  131/37/4  133/52/4
usemtl rock
f  135/62/5  129/63/5  132/111/5  136/102/5
usemtl rock
f  136/110/6  133/109/6  134/69/6  135/108/6

o entity0_brush17
usemtl side
f  137/69/1  138/61/1  139/101/1  140/109/1
usemtl side
f  141/102/2  139/114/2  138/115/2  142/62/2
usemtl side
f  142/53/3  138/98/3  137/95/3  143/52/3
usemtl side
f  144/52/4  140/95/4  139/98/4  141/53/4
usemtl side
f  143/62/5  137/115/5  140/114/5  144/102/5
usemtl side
f  144/109/6  141/101/6  142/61/6  143/69/6

o entity0_brush18
usemtl rock
f  145/116/1  146/117/1  147/118/1  148/119/1
usemtl rock
f  149/120/2  147/121/2  146/122/2  150/123/2
usemtl rock
f  150/124/3  146/125/3  145/126/3  151/127/3
usemtl rock
f  152/127/4  148/126/4  147/125/4  149/124/4
usemtl rock
f  151/123/5  145/122/5  148/121/5  152/120/5
usemtl rock
f  152/119/6  149/118/6  150/117/6  151/116/6

o entity0_brush19
usemtl rock
f  153/128/1  154/59/1  155/129/1  156/130/1
usemtl rock
f  157/120/2  155/121/2  154/122/2  158/123/2
usemtl rock
f  158/131/3  154/132/3  153/133/3  159/134/3
usemtl rock
f  160/134/4  156/133/4  155/132/4  157/131/4
usemtl rock
f  159/123/5  153/122/5  156/121/5  160/120/5
usemtl rock
f  160/130/6  157/129/6  158/59/6  159/128/6

o entity0_brush20
usemtl side
f  161/135/1  162/136/1  163/130/1  164/118/1
usemtl side
f  165/120/2  163/121/2  162/137/2  166/138/2
usemtl side
f  166/134/3  162/133/3  161/125/3  167/124/3
usemtl side
f  168/124/4  164/125/4  163/133/4  165/134/4
usemtl side
f  167/138/5  161/137/5  164/121/5  168/120/5
usemtl side
f  168/118/6  165/130/6  166/136/6  167/135/6

o entity0_brush21
usemtl ground_1
f  169/117/1  170/128/1  171/21/1  172/139/1
usemtl ground_1
f  173/140/2  171/141/2  170/122/2  174/123/2
usemtl ground_1
f  174/134/3  170/133/3  169/125/3  175/124/3
usemtl ground_1
f  176/124/4  172/125/4  171/133/4  173/134/4
usemtl ground_1
f  175/123/5  169/122/5  172/141/5  176/140/5
usemtl ground_1
f  176/139/6  173/21/6  174/128/6  175/117/6

o entity0_brush22
usemtl ground_1
f  177/116/1  178/68/1  179/142/1  180/119/1
usemtl ground_1
f  181/121/2  179/143/2  178/65/2  182/122/2
usemtl rock
f  182/144/3  178/52/3  177/145/3  183/126/3
usemtl rock
f  184/126/4  180/145/4  179/52/4  181/144/4
usemtl rock
f  183/122/5  177/65/5  180/143/5  184/121/5
usemtl rock
f  184/119/6  181/142/6  182/68/6  183/116/6

o entity0_brush23
usemtl ground_1
f  185/58/1  186/59/1  187/129/1  188/146/1
usemtl rock
f  189/121/2  187/143/2  186/65/2  190/122/2
usemtl rock
f  190/132/3  186/66/3  185/53/3  191/147/3
usemtl rock
f  192/147/4  188/53/4  187/66/4  189/132/4
usemtl ground_1
f  191/122/5  185/65/5  188/143/5  192/121/5
usemtl rock
f  192/146/6  189/129/6  190/59/6  191/58/6

o entity0_brush24
usemtl ground_1
f  193/69/1  194/61/1  195/146/1  196/142/1
usemtl ground_1
f  197/121/2  195/143/2  194/62/2  198/148/2
usemtl ground_1
f  198/147/3  194/53/3  193/52/3  199/144/3
usemtl rock
f  200/144/4  196/52/4  195/53/4  197/147/4
usemtl ground_1
f  199/148/5  193/62/5  196/143/5  200/121/5
usemtl rock
f  200/142/6  197/146/6  198/61/6  199/69/6

o entity0_brush25
usemtl ground_1
f  201/68/1  202/58/1  203/57/1  204/56/1
usemtl ground_1
f  205/141/2  203/54/2  202/65/2  206/122/2
usemtl rock
f  206/147/3  202/53/3  201/52/3  207/144/3
usemtl ground_1
f  208/144/4  204/52/4  203/53/4  205/147/4
usemtl ground_1
f  207/122/5  201/65/5  204/54/5  208/141/5
usemtl rock
f  208/56/6  205/57/6  206/58/6  207/68/6

o entity0_brush26
usemtl ground
f  209/116/1  210/149/1  211/150/1  212/119/1
usemtl ground
f  213/151/2  211/120/2  210/123/2  214/152/2
usemtl rock
f  214/153/3  210/154/3  209/127/3  215/155/3
usemtl rock
f  216/155/4  212/127/4  211/154/4  213/153/4
usemtl rock
f  215/152/5  209/123/5  212/120/5  216/151/5
usemtl rock
f  216/119/6  213/150/6  214/149/6  215/116/6

o entity0_brush27
usemtl ground
f  217/156/1  218/59/1  219/129/1  220/157/1
usemtl rock
f  221/151/2  219/120/2  218/123/2  222/152/2
usemtl rock
f  222/158/3  218/131/3  217/159/3  223/160/3
usemtl rock
f  224/160/4  220/159/4  219/131/4  221/158/4
usemtl ground
f  223/152/5  217/123/5  220/120/5  224/151/5
usemtl rock
f  224/157/6  221/129/6  222/59/6  223/156/6

o entity0_brush28
usemtl ground
f  225/161/1  226/162/1  227/157/1  228/150/1
usemtl ground
f  229/151/2  227/120/2  226/138/2  230/163/2
usemtl ground
f  230/160/3  226/159/3  225/154/3  231/153/3
usemtl rock
f  232/153/4  228/154/4  227/159/4  229/160/4
usemtl ground
f  231/163/5  225/138/5  228/120/5  232/151/5
usemtl rock
f  232/150/6  229/157/6  230/162/6  231/161/6

o entity0_brush29
usemtl ground
f  233/149/1  234/156/1  235/164/1  236/165/1
usemtl ground
f  237/166/2  235/140/2  234/123/2  238/152/2
usemtl rock
f  238/160/3  234/159/3  233/154/3  239/153/3
usemtl ground
f  240/153/4  236/154/4  235/159/4  237/160/4
usemtl ground
f  239/152/5  233/123/5  236/140/5  240/166/5
usemtl rock
f  240/165/6  237/164/6  238/156/6  239/149/6

o entity0_brush30
usemtl ground
f  241/167/1  242/59/1  243/129/1  244/168/1
usemtl ground
f  245/169/2  243/170/2  242/171/2  246/172/2
usemtl ground
f  246/173/3  242/174/3  241/175/3  247/176/3
usemtl ground
f  248/176/4  244/175/4  243/174/4  245/173/4
usemtl ground
f  247/172/5  241/171/5  244/170/5  248/169/5
usemtl ground
f  248/168/6  245/129/6  246/59/6  247/167/6

o entity0_brush31
usemtl ground
f  249/128/1  250/59/1  251/129/1  252/130/1
usemtl ground
f  253/170/2  251/177/2  250/178/2  254/171/2
usemtl ground
f  254/174/3  250/179/3  249/180/3  255/181/3
usemtl ground
f  256/181/4  252/180/4  251/179/4  253/174/4
usemtl ground
f  255/171/5  249/178/5  252/177/5  256/170/5
usemtl ground
f  256/130/6  253/129/6  254/59/6  255/128/6

o entity0_brush32
usemtl side
f  257/103/1  258/136/1  259/130/1  260/182/1
usemtl side
f  261/170/2  259/177/2  258/183/2  262/184/2
usemtl side
f  262/181/3  258/180/3  257/185/3  263/186/3
usemtl side
f  264/186/4  260/185/4  259/180/4  261/181/4
usemtl side
f  263/184/5  257/183/5  260/177/5  264/170/5
usemtl side
f  264/182/6  261/130/6  262/136/6  263/103/6

o entity0_brush33
usemtl ground_1
f  265/187/1  266/128/1  267/21/1  268/188/1
usemtl ground_1
f  269/189/2  267/190/2  266/178/2  270/171/2
usemtl ground_1
f  270/181/3  266/180/3  265/185/3  271/186/3
usemtl ground_1
f  272/186/4  268/185/4  267/180/4  269/181/4
usemtl ground_1
f  271/171/5  265/178/5  268/190/5  272/189/5
usemtl ground_1
f  272/188/6  269/21/6  270/128/6  271/187/6

o entity0_brush34
usemtl ground
f  273/167/1  274/149/1  275/150/1  276/168/1
usemtl ground
f  277/177/2  275/151/2  274/152/2  278/178/2
usemtl ground
f  278/191/3  274/153/3  273/192/3  279/193/3
usemtl ground
f  280/193/4  276/192/4  275/153/4  277/191/4
usemtl ground
f  279/178/5  273/152/5  276/151/5  280/177/5
usemtl ground
f  280/168/6  277/150/6  278/149/6  279/167/6

o entity0_brush35
usemtl ground
f  281/156/1  282/59/1  283/129/1  284/157/1
usemtl ground
f  285/177/2  283/151/2  282/152/2  286/178/2
usemtl ground
f  286/179/3  282/158/3  281/160/3  287/194/3
usemtl ground
f  288/194/4  284/160/4  283/158/4  285/179/4
usemtl ground
f  287/178/5  281/152/5  284/151/5  288/177/5
usemtl ground
f  288/157/6  285/129/6  286/59/6  287/156/6

o entity0_brush36
usemtl ground
f  289/161/1  290/162/1  291/157/1  292/150/1
usemtl ground
f  293/177/2  291/151/2  290/163/2  294/183/2
usemtl ground
f  294/194/3  290/160/3  289/153/3  295/191/3
usemtl ground
f  296/191/4  292/153/4  291/160/4  293/194/4
usemtl ground
f  295/183/5  289/163/5  292/151/5  296/177/5
usemtl ground
f  296/150/6  293/157/6  294/162/6  295/161/6

o entity0_brush37
usemtl ground
f  297/149/1  298/156/1  299/164/1  300/165/1
usemtl ground
f  301/190/2  299/166/2  298/152/2  302/178/2
usemtl ground
f  302/194/3  298/160/3  297/153/3  303/191/3
usemtl ground
f  304/191/4  300/153/4  299/160/4  301/194/4
usemtl ground
f  303/178/5  297/152/5  300/166/5  304/190/5
usemtl ground
f  304/165/6  301/164/6  302/156/6  303/149/6

o entity0_brush38
usemtl ground_1
f  305/167/1  306/187/1  307/182/1  308/168/1
usemtl ground_1
f  309/170/2  307/195/2  306/196/2  310/171/2
usemtl ground
f  310/186/3  306/197/3  305/198/3  311/175/3
usemtl ground
f  312/175/4  308/198/4  307/197/4  309/186/4
usemtl ground
f  311/171/5  305/196/5  308/195/5  312/170/5
usemtl ground
f  312/168/6  309/182/6  310/187/6  311/167/6

o entity0_brush39
usemtl ground
f  313/167/1  314/187/1  315/182/1  316/168/1
usemtl ground_1
f  317/199/2  315/177/2  314/178/2  318/200/2
usemtl ground
f  318/201/3  314/185/3  313/193/3  319/202/3
usemtl ground
f  320/202/4  316/193/4  315/185/4  317/201/4
usemtl ground
f  319/200/5  313/178/5  316/177/5  320/199/5
usemtl ground_1
f  320/168/6  317/182/6  318/187/6  319/167/6

o entity0_brush40
usemtl ground_1
f  321/203/1  322/103/1  323/182/1  324/168/1
usemtl ground_1
f  325/195/2  323/199/2  322/204/2  326/205/2
usemtl ground_1
f  326/197/3  322/201/3  321/202/3  327/198/3
usemtl ground
f  328/198/4  324/202/4  323/201/4  325/197/4
usemtl ground
f  327/205/5  321/204/5  324/199/5  328/195/5
usemtl ground_1
f  328/168/6  325/182/6  326/103/6  327/203/6

o entity0_brush41
usemtl ground_1
f  329/167/1  330/187/1  331/188/1  332/206/1
usemtl ground_1
f  333/207/2  331/208/2  330/200/2  334/196/2
usemtl ground
f  334/197/3  330/201/3  329/202/3  335/198/3
usemtl ground_1
f  336/198/4  332/202/4  331/201/4  333/197/4
usemtl ground
f  335/196/5  329/200/5  332/208/5  336/207/5
usemtl ground_1
f  336/206/6  333/188/6  334/187/6  335/167/6

